<svg id="visual" viewBox="0 0 960 300" width="960" height="300" xmlns="http://www.w3.org/2000/svg" xmlns:xlink="http://www.w3.org/1999/xlink" version="1.1"><path d="M0 194L22.8 195.3C45.7 196.7 91.3 199.3 137 194.8C182.7 190.3 228.3 178.7 274 186.3C319.7 194 365.3 221 411.2 220.2C457 219.3 503 190.7 548.8 189.8C594.7 189 640.3 216 686 227.8C731.7 239.7 777.3 236.3 823 232C868.7 227.7 914.3 222.3 937.2 219.7L960 217L960 0L937.2 0C914.3 0 868.7 0 823 0C777.3 0 731.7 0 686 0C640.3 0 594.7 0 548.8 0C503 0 457 0 411.2 0C365.3 0 319.7 0 274 0C228.3 0 182.7 0 137 0C91.3 0 45.7 0 22.8 0L0 0Z" fill="#ca054d"></path><path d="M0 202L22.8 201.3C45.7 200.7 91.3 199.3 137 201C182.7 202.7 228.3 207.3 274 194.8C319.7 182.3 365.3 152.7 411.2 141.3C457 130 503 137 548.8 146C594.7 155 640.3 166 686 178.8C731.7 191.7 777.3 206.3 823 198.8C868.7 191.3 914.3 161.7 937.2 146.8L960 132L960 0L937.2 0C914.3 0 868.7 0 823 0C777.3 0 731.7 0 686 0C640.3 0 594.7 0 548.8 0C503 0 457 0 411.2 0C365.3 0 319.7 0 274 0C228.3 0 182.7 0 137 0C91.3 0 45.7 0 22.8 0L0 0Z" fill="#9f1462"></path><path d="M0 169L22.8 168.7C45.7 168.3 91.3 167.7 137 167C182.7 166.3 228.3 165.7 274 161C319.7 156.3 365.3 147.7 411.2 144.5C457 141.3 503 143.7 548.8 150.5C594.7 157.3 640.3 168.7 686 165C731.7 161.3 777.3 142.7 823 128.8C868.7 115 914.3 106 937.2 101.5L960 97L960 0L937.2 0C914.3 0 868.7 0 823 0C777.3 0 731.7 0 686 0C640.3 0 594.7 0 548.8 0C503 0 457 0 411.2 0C365.3 0 319.7 0 274 0C228.3 0 182.7 0 137 0C91.3 0 45.7 0 22.8 0L0 0Z" fill="#6c2466"></path><path d="M0 122L22.8 115.5C45.7 109 91.3 96 137 98.8C182.7 101.7 228.3 120.3 274 119.5C319.7 118.7 365.3 98.3 411.2 96.7C457 95 503 112 548.8 114.8C594.7 117.7 640.3 106.3 686 101.8C731.7 97.3 777.3 99.7 823 107.8C868.7 116 914.3 130 937.2 137L960 144L960 0L937.2 0C914.3 0 868.7 0 823 0C777.3 0 731.7 0 686 0C640.3 0 594.7 0 548.8 0C503 0 457 0 411.2 0C365.3 0 319.7 0 274 0C228.3 0 182.7 0 137 0C91.3 0 45.7 0 22.8 0L0 0Z" fill="#39275a"></path><path d="M0 77L22.8 79.5C45.7 82 91.3 87 137 91.8C182.7 96.7 228.3 101.3 274 97.5C319.7 93.7 365.3 81.3 411.2 73.2C457 65 503 61 548.8 62C594.7 63 640.3 69 686 75.8C731.7 82.7 777.3 90.3 823 90.5C868.7 90.7 914.3 83.3 937.2 79.7L960 76L960 0L937.2 0C914.3 0 868.7 0 823 0C777.3 0 731.7 0 686 0C640.3 0 594.7 0 548.8 0C503 0 457 0 411.2 0C365.3 0 319.7 0 274 0C228.3 0 182.7 0 137 0C91.3 0 45.7 0 22.8 0L0 0Z" fill="#102040"></path><path d="M0 34L22.8 36.8C45.7 39.7 91.3 45.3 137 48.3C182.7 51.3 228.3 51.7 274 52.7C319.7 53.7 365.3 55.3 411.2 56.8C457 58.3 503 59.7 548.8 59.7C594.7 59.7 640.3 58.3 686 54.7C731.7 51 777.3 45 823 39.3C868.7 33.7 914.3 28.3 937.2 25.7L960 23L960 0L937.2 0C914.3 0 868.7 0 823 0C777.3 0 731.7 0 686 0C640.3 0 594.7 0 548.8 0C503 0 457 0 411.2 0C365.3 0 319.7 0 274 0C228.3 0 182.7 0 137 0C91.3 0 45.7 0 22.8 0L0 0Z" fill="#001220" fill-opacity="1"></path></svg>