<svg id="visual" viewBox="0 0 960 300" width="960" height="300" xmlns="http://www.w3.org/2000/svg" xmlns:xlink="http://www.w3.org/1999/xlink" version="1.1"><rect x="0" y="0" width="960" height="300" fill="#001220"></rect><path d="M0 97L14.5 97.3C29 97.7 58 98.3 87.2 110.7C116.3 123 145.7 147 174.8 161.5C204 176 233 181 262 181.7C291 182.3 320 178.7 349 170.7C378 162.7 407 150.3 436.2 141.3C465.3 132.3 494.7 126.7 523.8 127.8C553 129 582 137 611 136.7C640 136.3 669 127.7 698 138C727 148.3 756 177.7 785.2 179C814.3 180.3 843.7 153.7 872.8 150.3C902 147 931 167 945.5 177L960 187L960 0L945.5 0C931 0 902 0 872.8 0C843.7 0 814.3 0 785.2 0C756 0 727 0 698 0C669 0 640 0 611 0C582 0 553 0 523.8 0C494.7 0 465.3 0 436.2 0C407 0 378 0 349 0C320 0 291 0 262 0C233 0 204 0 174.8 0C145.7 0 116.3 0 87.2 0C58 0 29 0 14.5 0L0 0Z" fill="#c62368"></path><path d="M0 131L14.5 127.8C29 124.7 58 118.3 87.2 112.3C116.3 106.3 145.7 100.7 174.8 104.5C204 108.3 233 121.7 262 132.7C291 143.7 320 152.3 349 146.7C378 141 407 121 436.2 107.8C465.3 94.7 494.7 88.3 523.8 90C553 91.7 582 101.3 611 104.2C640 107 669 103 698 112C727 121 756 143 785.2 153.3C814.3 163.7 843.7 162.3 872.8 162.3C902 162.3 931 163.7 945.5 164.3L960 165L960 0L945.5 0C931 0 902 0 872.8 0C843.7 0 814.3 0 785.2 0C756 0 727 0 698 0C669 0 640 0 611 0C582 0 553 0 523.8 0C494.7 0 465.3 0 436.2 0C407 0 378 0 349 0C320 0 291 0 262 0C233 0 204 0 174.8 0C145.7 0 116.3 0 87.2 0C58 0 29 0 14.5 0L0 0Z" fill="#742d71"></path><path d="M0 74L14.5 70.3C29 66.7 58 59.3 87.2 55.3C116.3 51.3 145.7 50.7 174.8 49.7C204 48.7 233 47.3 262 58.8C291 70.3 320 94.7 349 104.5C378 114.3 407 109.7 436.2 101.7C465.3 93.7 494.7 82.3 523.8 75.8C553 69.3 582 67.7 611 71.5C640 75.3 669 84.7 698 81.2C727 77.7 756 61.3 785.2 58.7C814.3 56 843.7 67 872.8 79.3C902 91.7 931 105.3 945.5 112.2L960 119L960 0L945.5 0C931 0 902 0 872.8 0C843.7 0 814.3 0 785.2 0C756 0 727 0 698 0C669 0 640 0 611 0C582 0 553 0 523.8 0C494.7 0 465.3 0 436.2 0C407 0 378 0 349 0C320 0 291 0 262 0C233 0 204 0 174.8 0C145.7 0 116.3 0 87.2 0C58 0 29 0 14.5 0L0 0Z" fill="#262853"></path><path d="M0 56L14.5 59.2C29 62.3 58 68.7 87.2 71.5C116.3 74.3 145.7 73.7 174.8 69.7C204 65.7 233 58.3 262 50.5C291 42.7 320 34.3 349 33.5C378 32.7 407 39.3 436.2 46.2C465.3 53 494.7 60 523.8 62.2C553 64.3 582 61.7 611 57.5C640 53.3 669 47.7 698 46.7C727 45.7 756 49.3 785.2 52.5C814.3 55.7 843.7 58.3 872.8 58.5C902 58.7 931 56.3 945.5 55.2L960 54L960 0L945.5 0C931 0 902 0 872.8 0C843.7 0 814.3 0 785.2 0C756 0 727 0 698 0C669 0 640 0 611 0C582 0 553 0 523.8 0C494.7 0 465.3 0 436.2 0C407 0 378 0 349 0C320 0 291 0 262 0C233 0 204 0 174.8 0C145.7 0 116.3 0 87.2 0C58 0 29 0 14.5 0L0 0Z" fill="#001220"></path></svg>